Coordinates
version=1
nRows=5
nColumns=63
inDegrees=yes

Units are S.I. units (second, meters, Newtons, ...)
If the header above contains a line with 'inDegrees', this indicates whether rotational values are in degrees (yes) or radians (no).

endheader
time	pelvis_tilt	pelvis_list	pelvis_rotation	pelvis_tx	pelvis_ty	pelvis_tz	hip_flexion_r	hip_adduction_r	hip_rotation_r	knee_angle_r	knee_angle_r_beta	ankle_angle_r	subtalar_angle_r	mtp_angle_r	hip_flexion_l	hip_adduction_l	hip_rotation_l	knee_angle_l	knee_angle_l_beta	ankle_angle_l	subtalar_angle_l	mtp_angle_l	L5_S1_Flex_Ext	L5_S1_Lat_Bending	L5_S1_axial_rotation	L4_L5_Flex_Ext	L4_L5_Lat_Bending	L4_L5_axial_rotation	L3_L4_Flex_Ext	L3_L4_Lat_Bending	L3_L4_axial_rotation	L2_L3_Flex_Ext	L2_L3_Lat_Bending	L2_L3_axial_rotation	L1_L2_Flex_Ext	L1_L2_Lat_Bending	L1_L2_axial_rotation	L1_T12_Flex_Ext	L1_T12_Lat_Bending	L1_T12_axial_rotation	Abs_r3	Abs_r2	Abs_r1	Abs_t1	Abs_t2	neck_flexion	neck_bending	neck_rotation	arm_flex_r	arm_add_r	arm_rot_r	elbow_flex_r	pro_sup_r	wrist_flex_r	wrist_dev_r	arm_flex_l	arm_add_l	arm_rot_l	elbow_flex_l	pro_sup_l	wrist_flex_l	wrist_dev_l
     10.05084746	     -0.60081606	     -4.53713466	     95.03343065	      0.24934733	      0.87474360	      0.53424438	     -3.84965759	     -0.54763735	      0.62854401	     12.23739073	      0.21358276	      5.49107259	    -12.38391609	      0.00000000	     -5.66874734	     -2.36285936	    -15.59804753	      7.44505903	      0.12994079	     15.51135936	     15.32191978	      0.00000000	     -0.53845618	     -0.01392766	      7.11110951	     -0.99996697	     -0.01852379	      7.55555385	     -0.88462966	     -0.03386371	      7.55555385	     -0.61540157	     -0.03386371	      6.22222082	     -0.50001041	     -0.02840129	      5.77777647	     -0.30767386	     -0.02157395	      5.33333213	     -3.84613864	     -0.15755248	     39.54985773	      0.00000000	      0.00000000	     10.64574641	     -0.14674354	    -43.85470740	     -3.62984873	    -31.27183055	    -58.38549281	    126.57244939	     87.56858300	     -4.54944613	      6.59547065	     77.46164560	     33.72049771	    172.90461691	      0.06815130	      1.04771743	    -69.80490357	    -24.50110719
     10.06779661	     -0.74838029	     -3.26260966	     95.28992168	      0.25013521	      0.87600432	      0.53677304	     -4.99501067	     -0.49949088	      0.30166293	     12.42141698	      0.21679462	      5.05128041	    -12.88602868	      0.00000000	     -6.65470634	     -2.49375373	    -15.33278087	      7.88172333	      0.13756202	     15.72172432	     15.45468436	      0.00000000	     -0.61906354	     -0.01402291	      7.71038218	     -1.14966291	     -0.01865047	      8.19228107	     -1.01705950	     -0.03409530	      8.19228107	     -0.70752772	     -0.03409530	      6.74658441	     -0.57486241	     -0.02859552	      6.26468552	     -0.35373291	     -0.02172149	      5.78278664	     -4.42190899	     -0.15862996	     42.88283258	      0.00000000	      0.00000000	     10.94079016	      2.49934164	    -44.40776227	     -5.02040060	    -33.14637938	    -62.68933116	    130.58872916	     87.86017889	     -5.92982299	      6.81843764	     82.45186672	     38.61073475	    170.17398219	      0.05663026	      0.92112458	    -69.86433285	    -24.60193721
     10.08474576	     -0.96204887	     -2.22148861	     94.90049818	      0.25182299	      0.87643766	      0.53830587	     -5.83257438	     -0.59698298	      0.55528171	     12.78563028	      0.22315135	      4.94077995	    -13.24552716	      0.00000000	     -7.57428052	     -2.44324923	    -15.50353323	      8.23921794	      0.14380148	     16.07565399	     15.24660623	      0.00000000	     -0.64766134	     -0.04215042	      8.30728314	     -1.20277188	     -0.05606006	      8.82648834	     -1.06404282	     -0.10248454	      8.82648834	     -0.74021215	     -0.10248454	      7.26887275	     -0.60141832	     -0.08595314	      6.74966755	     -0.37007369	     -0.06529100	      6.23046236	     -4.62618021	     -0.47681401	     46.20261666	      0.00000000	      0.00000000	     11.27802176	      5.23251361	    -44.60009338	     -6.23711507	    -34.78639933	    -66.05848421	    134.10653126	     88.08321838	     -7.28592888	      8.08890955	     87.12893828	     42.56094390	    166.80589430	      0.04847902	      0.81254049	    -69.89634563	    -24.65804856
     10.10169492	     -1.46514975	     -1.46918065	     94.62134491	      0.25382369	      0.87617243	      0.53938833	     -6.44397825	     -0.98929607	      0.65361145	     13.15494715	      0.22959714	      5.26779236	    -13.51060056	      0.00000000	     -8.16895113	     -2.12277831	    -15.56336963	      8.68940495	      0.15165873	     16.40215739	     15.22581294	      0.00000000	     -0.67525626	     -0.13494871	      8.67993647	     -1.25401841	     -0.17948178	      9.22243249	     -1.10937851	     -0.32811429	      9.22243249	     -0.77175038	     -0.32811429	      7.59494441	     -0.62704297	     -0.27518740	      7.05244838	     -0.38584143	     -0.20903555	      6.50995235	     -4.82328796	     -1.52656677	     48.27520264	      0.00000000	      0.00000000	     11.95584269	      7.74654261	    -44.68341820	     -6.01097935	    -35.99951191	    -67.59526526	    136.75805192	     88.34483444	     -7.64144698	      8.45077087	     91.54735704	     45.42667087	    162.86180569	      0.04328620	      0.74999469	    -69.91396272	    -24.69755601
     10.11864407	     -2.08283235	     -1.03647569	     94.44949705	      0.25565144	      0.87553064	      0.53962361	     -6.86791803	     -1.52282707	      0.54033166	     13.37776606	      0.23348606	      5.68521274	    -13.63947480	      0.00000000	     -8.44229777	     -1.66984896	    -15.55177109	      9.17912912	      0.16020603	     16.67175982	     15.21849001	      0.00000000	     -0.68751295	     -0.26546667	      8.82171920	     -1.27678030	     -0.35307067	      9.37307666	     -1.12951503	     -0.64545566	      9.37307666	     -0.78575855	     -0.64545566	      7.71900430	     -0.63842453	     -0.54133963	      7.16764685	     -0.39284490	     -0.41120787	      6.61628940	     -4.91083626	     -3.00301207	     49.06375570	      0.00000000	      0.00000000	     12.46087690	      9.87526808	    -44.72432335	     -4.22487284	    -36.82407903	    -67.06829937	    138.60892010	     88.51888954	     -7.36754390	      7.69284254	     95.33361985	     47.37652462	    159.12464691	      0.04016511	      0.70193307	    -69.92325487	    -24.72422258
